<svg width="1135" height="1135" viewBox="0 0 1135 1135" fill="none" xmlns="http://www.w3.org/2000/svg">
<g clip-path="url(#clip0_1505_165)">
<path fill-rule="evenodd" clip-rule="evenodd" d="M1.49419 617C0.657704 605.426 0.168313 593.756 0.036377 582H1134.96C1134.83 593.756 1134.34 605.426 1133.51 617H1.49419ZM6.55031 662C8.04151 671.751 9.78086 681.419 11.7617 691H1123.24C1125.22 681.419 1126.96 671.751 1128.45 662H6.55031ZM32.4097 765C29.0269 755.448 25.8926 745.779 23.0146 736H1111.99C1109.11 745.779 1105.97 755.448 1102.59 765H32.4097ZM50.563 810C55.0245 819.819 59.7575 829.489 64.7526 839H1070.25C1075.24 829.489 1079.98 819.819 1084.44 810H50.563ZM111.22 913C104.222 903.554 97.5096 893.883 91.0966 884H1043.9C1037.49 893.883 1030.78 903.554 1023.78 913H111.22ZM148.269 958C157.399 968.001 166.883 977.674 176.699 987H958.301C968.117 977.674 977.6 968.001 986.73 958H148.269ZM273.492 1061C258.633 1051.98 244.222 1042.3 230.298 1032H904.702C890.778 1042.3 876.366 1051.98 861.508 1061H273.492ZM365.51 1106C428.263 1129.91 496.353 1143 567.5 1143C638.647 1143 706.737 1129.91 769.49 1106H365.51ZM567.5 8C267.017 8 21.0794 241.533 1.2853 537H1133.71C1113.92 241.533 867.982 8 567.5 8Z" fill="url(#paint0_linear_1505_165)"/>
<g clip-path="url(#clip1_1505_165)">
<path d="M885.02 373.77L695.257 327.516L688.396 355.616L878.159 401.87L885.02 373.77Z" fill="#FF4CFF"/>
<path d="M850.378 669.603C842.744 694.714 831.283 732.414 803.417 742.874C800.466 743.978 796.274 745.185 791.865 746.892C783.924 749.954 775.265 754.667 771.882 763.443C770.013 768.303 770.446 772.64 770.606 774.37C772.053 790.158 772.269 806.003 772.189 821.859C772.098 837.272 771.722 852.695 771.905 868.096C771.984 874.789 772.167 881.471 772.531 888.153C774.662 927.503 773.807 936.917 774.741 954.856C775.049 960.65 775.55 967.343 776.393 976.21C776.872 981.219 777.339 985.612 777.772 989.482C780.734 1015.41 782.705 1017.95 780.893 1023.78C776.541 1037.77 756.786 1050.33 727.712 1059.68C645.935 1085.99 490.414 1086.91 396.64 1022.92C379.585 1011.29 364.581 997.519 352.425 981.355C346.569 973.569 342.422 966.296 339.586 959.022C335.199 947.799 333.958 936.609 334.345 923.565V923.519C334.937 903.838 339.267 879.957 342.206 845.467C342.354 843.771 342.491 842.052 342.627 840.3C344.838 812.184 346.034 777.216 343.664 732.243C343.277 724.73 342.775 716.944 342.172 708.851C341.317 697.446 340.246 685.437 338.913 672.813C336.612 650.947 334.094 629.934 331.69 609.468C330.54 599.702 329.423 590.049 328.352 580.487C325.675 556.493 323.374 533.055 321.995 509.607C320.833 489.949 320.32 470.291 320.765 450.303C321.232 429.529 322.747 408.403 325.675 386.559C327.338 374.015 329.48 361.232 332.157 348.131C336.065 328.86 341.146 308.928 347.595 288.098C350.283 279.424 344.416 268.349 344.393 262.225C344.393 261.439 344.484 260.745 344.701 260.142C329.4 214.326 329.264 213.859 329.264 213.859C320.389 183.058 319.66 132.37 348.563 92.3709C351.742 87.9657 373.912 58.177 414.185 46.0885C424.985 42.8558 463.72 37.0961 468.221 46.0885C471.035 51.7002 450.687 84.3346 446.996 136.73C445.583 156.763 444.045 178.459 456.646 192.653C484.216 223.705 571.028 209.249 598.177 164.367C616.257 134.476 593.404 115.034 614.264 81.4434C634.611 48.6838 677.288 38.9287 694.047 36.1513C702.774 34.6943 732.862 32.2812 730.709 35.9009C718.484 56.4696 693.147 109.957 687.61 184.287C684.158 230.66 699.174 292.856 735.22 328.917C741.224 334.938 745.963 338.364 751.295 346.913C764.385 367.891 761.298 387.959 759.669 447.833C758.951 474.07 758.621 487.274 760.307 491.542C773.727 525.588 813.317 517.017 840.079 549.401C874.325 590.812 853.807 658.334 850.378 669.603Z" fill="#FF4CFF"/>
<path d="M759.077 873.867C779.06 873.867 795.26 833.938 795.26 784.683C795.26 735.428 779.06 695.499 759.077 695.499C739.093 695.499 722.893 735.428 722.893 784.683C722.893 833.938 739.093 873.867 759.077 873.867Z" fill="#FF4CFF"/>
<path d="M799.133 908.095C799.133 934.014 794.645 957.349 787.49 973.649C784.642 980.137 781.361 985.51 777.772 989.482C773.249 994.502 768.225 997.291 762.939 997.291C753.471 997.291 744.847 988.321 738.399 973.649C731.244 957.349 726.755 934.014 726.755 908.095C726.755 886.525 729.866 866.742 735.026 851.318C741.668 831.524 751.705 818.911 762.939 818.911C766.14 818.911 769.239 819.936 772.189 821.86C777.772 825.468 782.819 832.286 787 841.461C794.439 857.795 799.133 881.596 799.133 908.095Z" fill="#FF4CFF"/>
<path d="M777.772 989.482C780.734 1015.41 782.705 1017.95 780.894 1023.78C776.542 1037.77 756.787 1050.33 727.712 1059.68C727.086 1053.1 726.755 1046.24 726.755 1039.18C726.755 1013.27 731.233 989.938 738.399 973.649C744.847 958.965 753.471 949.995 762.939 949.995C767.074 949.995 771.05 951.703 774.741 954.856C779.526 958.908 783.856 965.374 787.49 973.649C784.642 980.137 781.361 985.51 777.772 989.482Z" fill="#FF4CFF"/>
<path d="M552.105 887.367C572.089 887.367 588.288 847.438 588.288 798.183C588.288 748.928 572.089 708.999 552.105 708.999C532.122 708.999 515.922 748.928 515.922 798.183C515.922 847.438 532.122 887.367 552.105 887.367Z" fill="#FF4CFF"/>
<path d="M555.967 1010.78C575.951 1010.78 592.15 970.851 592.15 921.595C592.15 872.34 575.951 832.411 555.967 832.411C535.984 832.411 519.784 872.34 519.784 921.595C519.784 970.851 535.984 1010.78 555.967 1010.78Z" fill="#FF4CFF"/>
<path d="M617.23 872.982C635.452 864.785 633.816 821.731 613.576 776.819C593.336 731.906 562.157 702.143 543.935 710.34C525.714 718.537 527.35 761.591 547.59 806.504C567.829 851.416 599.009 881.179 617.23 872.982Z" fill="#FF4CFF"/>
<path d="M649.338 864.863C698.325 859.346 736.224 838.791 733.986 818.951C731.748 799.11 690.221 787.498 641.233 793.014C592.245 798.53 554.347 819.085 556.585 838.926C558.823 858.766 600.35 870.379 649.338 864.863Z" fill="#FF4CFF"/>
<path d="M717.743 977.541C737.715 976.876 752.574 936.43 750.931 887.202C749.288 837.974 731.765 798.607 711.793 799.272C691.821 799.938 676.962 840.384 678.605 889.612C680.248 938.839 697.771 978.207 717.743 977.541Z" fill="#FF4CFF"/>
<path d="M637.39 975.521C680.863 974.072 714.878 936.154 713.365 890.828C711.852 845.502 675.384 809.933 631.912 811.381C588.439 812.829 554.424 850.748 555.937 896.073C557.45 941.399 593.918 976.969 637.39 975.521Z" fill="#FF4CFF"/>
<path d="M638.823 1019.23C694.476 1012.96 737.552 989.795 735.036 967.487C732.519 945.179 685.364 932.174 629.711 938.441C574.058 944.707 530.982 967.872 533.498 990.18C536.015 1012.49 583.17 1025.49 638.823 1019.23Z" fill="#FF4CFF"/>
<path d="M713.722 772.447C797.362 772.447 865.165 707.633 865.165 627.681C865.165 547.728 797.362 482.914 713.722 482.914C630.082 482.914 562.279 547.728 562.279 627.681C562.279 707.633 630.082 772.447 713.722 772.447Z" fill="#FF4CFF"/>
<path d="M562.279 627.681C546.272 577.243 622.512 482.345 713.722 482.914C815.63 483.552 865.427 566.748 865.165 627.681C865.165 629.331 865.769 633.201 864.778 637.971C859.492 663.593 820.654 685.949 794.827 677.344C790.862 676.023 779.173 674.635 773.044 670.15C764.215 663.707 764.75 655.694 760.615 656.422C758.997 656.707 757.721 662.523 749.871 670.799C749.871 670.799 743.423 676.456 731.016 677.901C718.724 679.336 580.633 685.562 562.256 627.681H562.279Z" fill="#FF4CFF"/>
<path d="M798.267 258.218C793.232 290.113 770.15 310.408 763.52 316.065C709.86 361.915 627.001 343.794 553.153 327.63C464.837 308.314 453.615 282.953 450.858 273.642C449.32 268.428 448.967 263.295 449.332 257.888C449.537 260.722 450.015 263.522 450.858 266.357C453.615 275.668 464.837 301.029 553.153 320.345C627.001 336.509 709.86 354.63 763.52 308.78C770.15 303.123 793.232 282.828 798.267 250.933C798.575 248.953 798.78 246.926 798.894 244.889C799.11 249.362 798.951 253.881 798.267 258.218Z" fill="#FF4CFF"/>
<path d="M357.734 434.344C377.718 434.344 393.918 394.415 393.918 345.16C393.918 295.905 377.718 255.976 357.734 255.976C337.751 255.976 321.551 295.905 321.551 345.16C321.551 394.415 337.751 434.344 357.734 434.344Z" fill="#FF4CFF"/>
<path d="M341.42 523.539C361.403 523.539 377.603 483.61 377.603 434.355C377.603 385.1 361.403 345.171 341.42 345.171C321.436 345.171 305.237 385.1 305.237 434.355C305.237 483.61 321.436 523.539 341.42 523.539Z" fill="#FF4CFF"/>
<path d="M341.42 612.724C361.403 612.724 377.603 572.795 377.603 523.539C377.603 474.284 361.403 434.355 341.42 434.355C321.436 434.355 305.237 474.284 305.237 523.539C305.237 572.795 321.436 612.724 341.42 612.724Z" fill="#FF4CFF"/>
<path d="M352.904 735.18C372.887 735.18 389.087 695.251 389.087 645.996C389.087 596.74 372.887 556.811 352.904 556.811C332.92 556.811 316.72 596.74 316.72 645.996C316.72 695.251 332.92 735.18 352.904 735.18Z" fill="#FF4CFF"/>
<path d="M365.447 866.298C385.43 866.298 401.63 826.369 401.63 777.114C401.63 727.859 385.43 687.93 365.447 687.93C345.463 687.93 329.264 727.859 329.264 777.114C329.264 826.369 345.463 866.298 365.447 866.298Z" fill="#FF4CFF"/>
<path d="M369.309 989.721C389.293 989.721 405.492 949.792 405.492 900.537C405.492 851.282 389.293 811.353 369.309 811.353C349.326 811.353 333.126 851.282 333.126 900.537C333.126 949.792 349.326 989.721 369.309 989.721Z" fill="#FF4CFF"/>
<path d="M396.64 1022.93C395.945 1005.12 393.131 988.856 388.814 975.675C382.183 955.402 372.021 942.426 360.628 942.426C353.451 942.426 346.752 947.582 341.124 956.461C340.6 957.292 340.087 958.134 339.586 959.022L396.64 1022.93Z" fill="#FF4CFF"/>
<path d="M515.91 406.695H722.893V484.531C722.893 504.166 706.943 520.102 687.291 520.102H555.591C533.694 520.102 515.922 502.345 515.922 480.467V406.684L515.91 406.695Z" fill="#FF4CFF"/>
<path d="M747.262 406.695H885.011V476.984C885.011 496.073 869.495 511.576 850.389 511.576H786.715C764.944 511.576 747.262 493.91 747.262 472.158V406.695Z" fill="#FF4CFF"/>
<path d="M522.121 378.888L332.359 332.634L325.498 360.733L515.26 406.987L522.121 378.888Z" fill="#FF4CFF"/>
<path d="M885 377.999H515.067V406.923H885V377.999Z" fill="#FF4CFF"/>
<path d="M702.272 406.695V470.666C702.272 490.313 686.323 506.238 666.659 506.238H576.212C554.304 506.238 536.543 488.492 536.543 466.603V406.695H702.272Z" fill="#FF4CFF"/>
<path d="M872.867 406.695V461.173C872.867 480.285 857.373 495.765 838.244 495.765H802.392C780.609 495.765 762.939 478.122 762.939 456.347V406.695H872.867Z" fill="#FF4CFF"/>
<path d="M798.894 244.809V244.889C798.78 246.926 798.575 248.952 798.267 250.933C793.232 282.828 770.15 303.123 763.52 308.78C709.86 354.63 627.001 336.509 553.153 320.345C464.837 301.029 453.615 275.668 450.858 266.357C450.015 263.522 449.537 260.722 449.331 257.888C448.682 249.339 450.528 240.495 452.783 229.716C454.994 219.186 462.41 185.869 489.457 160.292C514.862 136.274 557.403 119.28 595.614 129.445C643.6 142.205 696.508 200.951 717.208 223.933C723.018 230.387 733.58 242.521 746.157 241.292C767.906 239.141 781.68 202.329 786.681 200.792C790.498 199.619 800.033 223.159 798.894 244.809Z" fill="#FF4CFF"/>
<path d="M452.783 67.2946C447.155 65.7124 426.011 103.526 419.972 148.283C413.615 195.351 432.447 251.445 442.165 251.457C474.976 251.457 456.908 214.554 452.783 194.566C449.195 177.207 449.195 164.674 450.858 132.859C453.137 89.104 456.828 68.4329 452.783 67.2946Z" fill="#FF4CFF"/>
<path d="M708.071 69.2866C702.66 67.0897 665.463 103.515 654.469 147.327C642.916 193.393 667.342 250.034 677.003 251.115C709.609 254.769 695.767 216.079 693.887 195.761C692.258 178.117 693.648 165.653 698.843 134.225C705.975 90.9936 711.956 70.8688 708.06 69.2866H708.071Z" fill="#FF4CFF"/>
<path d="M802.756 575.798C802.756 593.475 772.212 607.795 762.939 607.795C762.939 607.795 723.121 593.464 723.121 575.798C723.121 558.132 740.951 543.801 762.939 543.801C784.927 543.801 802.756 558.132 802.756 575.798Z" fill="#FF4CFF"/>
<path d="M760.512 656.525C756.502 656.798 756.946 664.732 749.894 670.787C741.646 677.879 731.381 675.318 731.039 677.89C730.652 680.793 743.377 686.678 757.835 687.634C777.601 688.931 795.328 680.679 794.85 677.332C794.462 674.691 783.058 677.97 773.067 670.138C765.388 664.128 764.522 656.24 760.512 656.513V656.525Z" fill="#FF4CFF"/>
<path opacity="0.3" d="M702.272 406.695V470.666C702.272 490.313 686.323 506.238 666.659 506.238H652.714C642.164 494.764 635.716 479.442 635.716 462.619C635.716 438.703 648.738 417.827 668.094 406.695H702.272Z" fill="#FF4CFF"/>
<path opacity="0.3" d="M872.867 406.695V461.173C872.867 480.285 857.373 495.765 838.244 495.765H834.006C828.185 486.079 824.835 474.741 824.835 462.619C824.835 438.703 837.857 417.827 857.225 406.695H872.867Z" fill="#FF4CFF"/>
<path d="M874.776 389.715L685.013 343.461L678.152 371.561L867.915 417.815L874.776 389.715Z" fill="#F99219"/>
<path d="M840.124 685.539C832.491 710.65 821.03 748.349 793.163 758.81C790.213 759.914 786.02 761.121 781.611 762.828C773.67 765.89 765.012 770.603 761.628 779.379C759.76 784.239 760.193 788.576 760.352 790.306C761.799 806.094 762.016 821.939 761.936 837.795C761.845 853.208 761.469 868.631 761.651 884.032C761.731 890.725 761.913 897.407 762.278 904.089C764.408 943.439 763.554 952.853 764.488 970.792C764.796 976.586 765.297 983.279 766.14 992.146C766.618 997.154 767.086 1001.55 767.518 1005.42C770.481 1031.35 772.451 1033.89 770.64 1039.71C766.288 1053.7 746.533 1066.27 717.459 1075.62C635.682 1101.92 480.16 1102.84 386.387 1038.86C369.332 1027.23 354.328 1013.45 342.172 997.291C336.316 989.505 332.169 982.232 329.332 974.958C324.946 963.735 323.704 952.545 324.091 939.501V939.455C324.684 919.774 329.013 895.893 331.952 861.403C332.101 859.707 332.237 857.988 332.374 856.235C334.584 828.12 335.78 793.152 333.411 748.179C333.023 740.666 332.522 732.88 331.918 724.787C331.064 713.382 329.993 701.373 328.66 688.749C326.359 666.883 323.841 645.87 321.437 625.404C320.286 615.638 319.17 605.985 318.099 596.423C315.422 572.429 313.12 548.991 311.742 525.543C310.58 505.885 310.067 486.227 310.511 466.238C310.978 445.465 312.494 424.338 315.422 402.495C317.085 389.951 319.227 377.168 321.904 364.067C325.812 344.796 330.893 324.864 337.341 304.034C340.03 295.36 334.163 284.285 334.14 278.161C334.14 277.375 334.231 276.681 334.447 276.078C319.147 230.262 319.01 229.795 319.01 229.795C310.135 198.993 309.406 148.306 338.31 108.307C341.488 103.902 363.658 74.1129 403.932 62.0244C414.732 58.7917 453.467 53.032 457.967 62.0244C460.781 67.6361 440.434 100.271 436.743 152.666C435.33 172.699 433.792 194.395 446.392 208.589C473.963 239.641 560.775 225.185 587.924 180.303C606.004 150.412 583.15 130.97 604.01 97.3793C624.358 64.6197 667.035 54.8646 683.793 52.0872C692.52 50.6302 722.608 48.2171 720.455 51.8368C708.231 72.4055 682.893 125.893 677.357 200.223C673.905 246.596 688.92 308.792 724.967 344.852C730.971 350.874 735.71 354.3 741.042 362.849C754.132 383.827 751.045 403.895 749.415 463.768C748.698 490.006 748.367 503.21 750.053 507.478C763.474 541.524 803.064 532.953 829.825 565.337C864.072 606.748 843.553 674.27 840.124 685.539Z" fill="#F99219"/>
<path d="M748.823 889.803C768.807 889.803 785.006 849.874 785.006 800.619C785.006 751.364 768.807 711.435 748.823 711.435C728.84 711.435 712.64 751.364 712.64 800.619C712.64 849.874 728.84 889.803 748.823 889.803Z" fill="#F99219"/>
<path d="M788.88 924.031C788.88 949.95 784.391 973.285 777.236 989.585C774.388 996.073 771.107 1001.45 767.518 1005.42C762.996 1010.44 757.971 1013.23 752.685 1013.23C743.218 1013.23 734.594 1004.26 728.145 989.585C720.991 973.285 716.502 949.95 716.502 924.031C716.502 902.461 719.612 882.678 724.773 867.254C731.415 847.459 741.452 834.847 752.685 834.847C755.887 834.847 758.985 835.872 761.936 837.795C767.519 841.404 772.565 848.222 776.747 857.397C784.186 873.731 788.88 897.532 788.88 924.031Z" fill="#F99219"/>
<path d="M767.518 1005.42C770.481 1031.35 772.452 1033.89 770.64 1039.71C766.288 1053.7 746.533 1066.27 717.459 1075.62C716.832 1069.04 716.502 1062.17 716.502 1055.12C716.502 1029.21 720.979 1005.87 728.145 989.585C734.594 974.901 743.218 965.931 752.685 965.931C756.821 965.931 760.797 967.639 764.488 970.792C769.273 974.844 773.602 981.31 777.236 989.585C774.388 996.073 771.107 1001.45 767.518 1005.42Z" fill="#F99219"/>
<path d="M541.852 903.303C561.835 903.303 578.035 863.374 578.035 814.119C578.035 764.864 561.835 724.935 541.852 724.935C521.868 724.935 505.668 764.864 505.668 814.119C505.668 863.374 521.868 903.303 541.852 903.303Z" fill="#F99219"/>
<path d="M545.714 1026.72C565.697 1026.72 581.897 986.786 581.897 937.531C581.897 888.276 565.697 848.347 545.714 848.347C525.73 848.347 509.531 888.276 509.531 937.531C509.531 986.786 525.73 1026.72 545.714 1026.72Z" fill="#F99219"/>
<path d="M606.978 888.919C625.2 880.722 623.564 837.668 603.324 792.755C583.084 747.843 551.905 718.08 533.684 726.277C515.462 734.474 517.098 777.528 537.338 822.44C557.578 867.353 588.757 897.116 606.978 888.919Z" fill="#F99219"/>
<path d="M639.089 880.798C688.077 875.282 725.975 854.727 723.737 834.886C721.499 815.046 679.973 803.434 630.985 808.95C581.997 814.466 544.099 835.021 546.337 854.862C548.574 874.702 590.101 886.314 639.089 880.798Z" fill="#F99219"/>
<path d="M707.491 993.468C727.464 992.803 742.323 952.357 740.68 903.129C739.036 853.901 721.514 814.534 701.541 815.199C681.569 815.865 666.71 856.311 668.353 905.539C669.996 954.766 687.519 994.134 707.491 993.468Z" fill="#F99219"/>
<path d="M627.127 991.459C670.6 990.01 704.615 952.092 703.102 906.767C701.589 861.441 665.121 825.871 621.649 827.319C578.176 828.768 544.161 866.686 545.674 912.012C547.187 957.338 583.655 992.907 627.127 991.459Z" fill="#F99219"/>
<path d="M628.575 1035.16C684.228 1028.89 727.304 1005.73 724.787 983.422C722.271 961.114 675.116 948.11 619.463 954.377C563.81 960.643 520.734 983.808 523.25 1006.12C525.766 1028.42 572.922 1041.43 628.575 1035.16Z" fill="#F99219"/>
<path d="M703.469 788.383C787.108 788.383 854.912 723.569 854.912 643.616C854.912 563.664 787.108 498.85 703.469 498.85C619.829 498.85 552.025 563.664 552.025 643.616C552.025 723.569 619.829 788.383 703.469 788.383Z" fill="#F99219"/>
<path d="M552.025 643.616C536.019 593.179 612.259 498.281 703.469 498.85C805.377 499.488 855.174 582.684 854.912 643.616C854.912 645.267 855.516 649.137 854.525 653.906C849.238 679.529 810.401 701.885 784.573 693.28C780.609 691.959 768.92 690.57 762.791 686.086C753.961 679.643 754.497 671.629 750.361 672.358C748.743 672.643 747.467 678.459 739.618 686.734C739.618 686.734 733.17 692.392 720.763 693.837C708.47 695.272 570.379 701.498 552.003 643.616H552.025Z" fill="#F99219"/>
<path d="M788.014 274.154C782.978 306.049 759.897 326.344 753.266 332.001C699.607 377.851 616.747 359.73 542.9 343.566C454.584 324.25 443.362 298.889 440.605 289.578C439.067 284.364 438.714 279.231 439.078 273.824C439.283 276.658 439.762 279.458 440.605 282.293C443.362 291.604 454.584 316.965 542.9 336.281C616.747 352.445 699.607 370.566 753.266 324.716C759.897 319.059 782.978 298.764 788.014 266.869C788.322 264.888 788.527 262.862 788.641 260.825C788.857 265.298 788.698 269.817 788.014 274.154Z" fill="#F99219"/>
<path d="M347.481 450.28C367.464 450.28 383.664 410.351 383.664 361.096C383.664 311.841 367.464 271.912 347.481 271.912C327.497 271.912 311.298 311.841 311.298 361.096C311.298 410.351 327.497 450.28 347.481 450.28Z" fill="#F99219"/>
<path d="M331.166 539.475C351.15 539.475 367.35 499.546 367.35 450.291C367.35 401.036 351.15 361.107 331.166 361.107C311.183 361.107 294.983 401.036 294.983 450.291C294.983 499.546 311.183 539.475 331.166 539.475Z" fill="#F99219"/>
<path d="M331.166 628.66C351.15 628.66 367.35 588.73 367.35 539.475C367.35 490.22 351.15 450.291 331.166 450.291C311.183 450.291 294.983 490.22 294.983 539.475C294.983 588.73 311.183 628.66 331.166 628.66Z" fill="#F99219"/>
<path d="M342.65 751.116C362.634 751.116 378.834 711.186 378.834 661.931C378.834 612.676 362.634 572.747 342.65 572.747C322.667 572.747 306.467 612.676 306.467 661.931C306.467 711.186 322.667 751.116 342.65 751.116Z" fill="#F99219"/>
<path d="M355.193 882.234C375.177 882.234 391.377 842.305 391.377 793.05C391.377 743.795 375.177 703.866 355.193 703.866C335.21 703.866 319.01 743.795 319.01 793.05C319.01 842.305 335.21 882.234 355.193 882.234Z" fill="#F99219"/>
<path d="M359.056 1005.66C379.039 1005.66 395.239 965.728 395.239 916.473C395.239 867.218 379.039 827.289 359.056 827.289C339.072 827.289 322.873 867.218 322.873 916.473C322.873 965.728 339.072 1005.66 359.056 1005.66Z" fill="#F99219"/>
<path d="M386.387 1038.86C385.692 1021.06 382.878 1004.79 378.56 991.611C371.93 971.338 361.767 958.362 350.375 958.362C343.197 958.362 336.498 963.518 330.87 972.397C330.346 973.228 329.834 974.07 329.332 974.958L386.387 1038.86Z" fill="#F99219"/>
<path d="M505.657 422.631H712.64V500.466C712.64 520.102 696.69 536.038 677.037 536.038H545.338C523.441 536.038 505.668 518.281 505.668 496.403V422.62L505.657 422.631Z" fill="#F99219"/>
<path d="M737.009 422.631H874.758V492.92C874.758 512.009 859.241 527.512 840.136 527.512H776.462C754.69 527.512 737.009 509.846 737.009 488.093V422.631Z" fill="#F99219"/>
<path d="M511.866 394.821L322.103 348.567L315.242 376.667L505.005 422.921L511.866 394.821Z" fill="#F99219"/>
<path d="M874.747 393.935H504.814V422.859H874.747V393.935Z" fill="#F99219"/>
<path d="M692.019 422.631V486.602C692.019 506.249 676.069 522.173 656.405 522.173H565.959C544.051 522.173 526.289 504.428 526.289 482.539V422.631H692.019Z" fill="#F99219"/>
<path d="M862.613 422.631V477.109C862.613 496.221 847.119 511.701 827.991 511.701H792.138C770.355 511.701 752.685 494.058 752.685 472.283V422.631H862.613Z" fill="#F99219"/>
<path d="M788.641 260.745V260.825C788.527 262.862 788.322 264.888 788.014 266.869C782.978 298.764 759.897 319.059 753.266 324.716C699.607 370.566 616.747 352.445 542.9 336.281C454.584 316.965 443.362 291.604 440.605 282.293C439.762 279.458 439.283 276.658 439.078 273.824C438.429 265.275 440.274 256.431 442.53 245.651C444.74 235.122 452.157 201.805 479.203 176.228C504.609 152.21 547.149 135.216 585.36 145.381C633.347 158.141 686.254 216.887 706.955 239.869C712.765 246.323 723.326 258.457 735.904 257.228C757.652 255.076 771.426 218.264 776.428 216.728C780.244 215.555 789.78 239.095 788.641 260.745Z" fill="#F99219"/>
<path d="M442.53 83.2305C436.902 81.6483 415.757 119.462 409.719 164.219C403.362 211.287 422.194 267.381 431.912 267.393C464.723 267.393 446.654 230.49 442.53 210.501C438.941 193.143 438.941 180.61 440.605 148.795C442.883 105.04 446.574 84.3688 442.53 83.2305Z" fill="#F99219"/>
<path d="M697.818 85.2225C692.406 83.0256 655.209 119.451 644.215 163.263C632.663 209.329 657.089 265.97 666.75 267.051C699.356 270.705 685.514 232.015 683.634 211.697C682.005 194.053 683.395 181.589 688.59 150.161C695.722 106.929 701.703 86.8047 697.807 85.2225H697.818Z" fill="#F99219"/>
<path d="M792.503 591.734C792.503 609.411 761.959 623.731 752.685 623.731C752.685 623.731 712.868 609.4 712.868 591.734C712.868 574.068 730.697 559.737 752.685 559.737C774.673 559.737 792.503 574.068 792.503 591.734Z" fill="#F99219"/>
<path d="M750.259 672.46C746.248 672.734 746.693 680.667 739.641 686.723C731.392 693.815 721.127 691.253 720.786 693.826C720.398 696.729 733.124 702.613 747.581 703.57C767.348 704.867 785.075 696.615 784.596 693.268C784.209 690.627 772.805 693.906 762.813 686.074C755.135 680.064 754.269 672.176 750.259 672.449V672.46Z" fill="#F99219"/>
<path opacity="0.3" d="M692.019 422.631V486.602C692.019 506.249 676.069 522.173 656.405 522.173H642.461C631.911 510.7 625.463 495.378 625.463 478.555C625.463 454.639 638.485 433.763 657.841 422.631H692.019Z" fill="#F99219"/>
<path opacity="0.3" d="M862.613 422.631V477.109C862.613 496.221 847.119 511.701 827.991 511.701H823.753C817.931 502.015 814.582 490.677 814.582 478.555C814.582 454.639 827.604 433.763 846.971 422.631H862.613Z" fill="#F99219"/>
<path d="M862.781 412.222L673.019 365.969L666.157 394.068L855.92 440.322L862.781 412.222Z" fill="#29DDFF"/>
<path d="M828.139 708.054C820.506 733.165 809.045 770.865 781.178 781.325C778.227 782.43 774.035 783.636 769.626 785.344C761.685 788.406 753.027 793.118 749.643 801.894C747.775 806.755 748.208 811.091 748.367 812.822C749.814 828.61 750.03 844.454 749.951 860.311C749.859 875.723 749.484 891.147 749.666 906.547C749.746 913.24 749.928 919.922 750.292 926.604C752.423 965.954 751.568 975.368 752.503 993.307C752.81 999.101 753.311 1005.79 754.155 1014.66C754.633 1019.67 755.1 1024.06 755.533 1027.93C758.495 1053.86 760.466 1056.4 758.655 1062.23C754.303 1076.22 734.548 1088.79 705.474 1098.13C623.697 1124.44 468.175 1125.36 374.401 1061.38C357.347 1049.74 342.342 1035.97 330.186 1019.81C324.33 1012.02 320.184 1004.75 317.347 997.473C312.961 986.25 311.719 975.06 312.106 962.016V961.97C312.699 942.289 317.028 918.408 319.967 883.918C320.115 882.222 320.252 880.504 320.389 878.751C322.599 850.635 323.795 815.667 321.425 770.694C321.038 763.181 320.537 755.395 319.933 747.302C319.078 735.897 318.008 723.888 316.675 711.264C314.373 689.398 311.855 668.385 309.452 647.919C308.301 638.153 307.184 628.5 306.114 618.939C303.436 594.944 301.135 571.506 299.756 548.058C298.594 528.4 298.082 508.742 298.526 488.754C298.993 467.98 300.508 446.854 303.436 425.01C305.1 412.466 307.241 399.683 309.919 386.582C313.826 367.311 318.908 347.379 325.356 326.549C328.044 317.875 322.177 306.8 322.154 300.676C322.154 299.89 322.246 299.196 322.462 298.593C307.162 252.777 307.025 252.31 307.025 252.31C298.15 221.509 297.421 170.821 326.324 130.822C329.503 126.417 351.673 96.628 391.946 84.5395C402.746 81.3068 441.482 75.5471 445.982 84.5395C448.796 90.1512 428.448 122.786 424.757 175.181C423.344 195.214 421.806 216.91 434.407 231.104C461.977 262.157 548.79 247.7 575.938 202.818C594.019 172.927 571.165 153.485 592.025 119.894C612.372 87.1348 655.049 77.3798 671.808 74.6024C680.535 73.1454 710.623 70.7322 708.47 74.3519C696.245 94.9206 670.908 148.408 665.371 222.738C661.919 269.111 676.935 331.307 712.981 367.368C718.985 373.389 723.725 376.815 729.056 385.364C742.147 406.342 739.059 426.41 737.43 486.284C736.712 512.521 736.382 525.725 738.068 529.993C751.489 564.039 791.078 555.468 817.84 587.852C852.086 629.263 831.568 696.785 828.139 708.054Z" fill="#29DDFF"/>
<path d="M736.849 912.319C756.832 912.319 773.032 872.389 773.032 823.134C773.032 773.879 756.832 733.95 736.849 733.95C716.866 733.95 700.666 773.879 700.666 823.134C700.666 872.389 716.866 912.319 736.849 912.319Z" fill="#29DDFF"/>
<path d="M776.894 946.547C776.894 972.465 772.406 995.8 765.251 1012.1C762.403 1018.59 759.122 1023.96 755.533 1027.93C751.01 1032.95 745.986 1035.74 740.7 1035.74C731.232 1035.74 722.608 1026.77 716.16 1012.1C709.005 995.8 704.516 972.465 704.516 946.547C704.516 924.976 707.627 905.193 712.788 889.769C719.43 869.975 729.467 857.362 740.7 857.362C743.901 857.362 747 858.387 749.951 860.311C755.533 863.919 760.58 870.737 764.761 879.912C772.201 896.246 776.894 920.047 776.894 946.547Z" fill="#29DDFF"/>
<path d="M755.533 1027.93C758.495 1053.86 760.466 1056.4 758.655 1062.23C754.303 1076.22 734.548 1088.79 705.473 1098.13C704.847 1091.55 704.516 1084.69 704.516 1077.63C704.516 1051.72 708.994 1028.39 716.16 1012.1C722.608 997.416 731.232 988.447 740.7 988.447C744.835 988.447 748.811 990.154 752.503 993.307C757.287 997.359 761.617 1003.82 765.251 1012.1C762.403 1018.59 759.122 1023.96 755.533 1027.93Z" fill="#29DDFF"/>
<path d="M529.866 925.818C549.85 925.818 566.05 885.889 566.05 836.634C566.05 787.379 549.85 747.45 529.866 747.45C509.883 747.45 493.683 787.379 493.683 836.634C493.683 885.889 509.883 925.818 529.866 925.818Z" fill="#29DDFF"/>
<path d="M533.728 1049.23C553.712 1049.23 569.912 1009.3 569.912 960.047C569.912 910.792 553.712 870.862 533.728 870.862C513.745 870.862 497.545 910.792 497.545 960.047C497.545 1009.3 513.745 1049.23 533.728 1049.23Z" fill="#29DDFF"/>
<path d="M594.991 911.429C613.213 903.231 611.577 860.177 591.337 815.265C571.097 770.353 539.918 740.589 521.696 748.786C503.475 756.984 505.111 800.038 525.351 844.95C545.59 889.862 576.77 919.626 594.991 911.429Z" fill="#29DDFF"/>
<path d="M627.105 903.318C676.093 897.802 713.992 877.246 711.754 857.406C709.516 837.565 667.989 825.953 619.001 831.469C570.013 836.985 532.115 857.541 534.353 877.381C536.591 897.221 578.118 908.834 627.105 903.318Z" fill="#29DDFF"/>
<path d="M695.5 1015.98C715.473 1015.32 730.332 974.871 728.689 925.644C727.045 876.416 709.523 837.049 689.55 837.714C669.578 838.379 654.719 878.826 656.362 928.053C658.005 977.281 675.528 1016.65 695.5 1015.98Z" fill="#29DDFF"/>
<path d="M615.148 1013.97C658.62 1012.53 692.636 974.607 691.123 929.281C689.61 883.955 653.142 848.386 609.669 849.834C566.197 851.283 532.182 889.201 533.695 934.527C535.207 979.853 571.675 1015.42 615.148 1013.97Z" fill="#29DDFF"/>
<path d="M616.591 1057.68C672.244 1051.41 715.32 1028.25 712.804 1005.94C710.287 983.634 663.132 970.629 607.479 976.896C551.826 983.163 508.75 1006.33 511.267 1028.63C513.783 1050.94 560.938 1063.95 616.591 1057.68Z" fill="#29DDFF"/>
<path d="M691.483 810.898C775.123 810.898 842.927 746.084 842.927 666.132C842.927 586.179 775.123 521.365 691.483 521.365C607.844 521.365 540.04 586.179 540.04 666.132C540.04 746.084 607.844 810.898 691.483 810.898Z" fill="#29DDFF"/>
<path d="M540.04 666.132C524.033 615.694 600.273 520.796 691.483 521.365C793.391 522.003 843.189 605.2 842.927 666.132C842.927 667.782 843.53 671.652 842.539 676.422C837.253 702.044 798.415 724.4 772.588 715.795C768.623 714.474 756.935 713.086 750.805 708.601C741.976 702.158 742.511 694.145 738.376 694.873C736.758 695.158 735.482 700.974 727.632 709.25C727.632 709.25 721.184 714.907 708.778 716.352C696.485 717.787 558.394 724.013 540.017 666.132H540.04Z" fill="#29DDFF"/>
<path d="M776.029 296.669C770.993 328.564 747.911 348.859 741.281 354.516C687.621 400.366 604.762 382.245 530.914 366.081C442.598 346.765 431.376 321.404 428.619 312.093C427.081 306.879 426.728 301.746 427.093 296.339C427.298 299.173 427.776 301.974 428.619 304.808C431.376 314.119 442.598 339.48 530.914 358.796C604.762 374.96 687.621 393.081 741.281 347.231C747.911 341.574 770.993 321.279 776.029 289.384C776.336 287.404 776.541 285.377 776.655 283.34C776.872 287.813 776.712 292.332 776.029 296.669Z" fill="#29DDFF"/>
<path d="M335.495 472.795C355.479 472.795 371.679 432.866 371.679 383.611C371.679 334.356 355.479 294.427 335.495 294.427C315.512 294.427 299.312 334.356 299.312 383.611C299.312 432.866 315.512 472.795 335.495 472.795Z" fill="#29DDFF"/>
<path d="M319.181 561.99C339.164 561.99 355.364 522.061 355.364 472.806C355.364 423.551 339.164 383.622 319.181 383.622C299.198 383.622 282.998 423.551 282.998 472.806C282.998 522.061 299.198 561.99 319.181 561.99Z" fill="#29DDFF"/>
<path d="M319.181 651.175C339.164 651.175 355.364 611.245 355.364 561.99C355.364 512.735 339.164 472.806 319.181 472.806C299.198 472.806 282.998 512.735 282.998 561.99C282.998 611.245 299.198 651.175 319.181 651.175Z" fill="#29DDFF"/>
<path d="M330.665 773.631C350.648 773.631 366.848 733.702 366.848 684.447C366.848 635.191 350.648 595.262 330.665 595.262C310.681 595.262 294.482 635.191 294.482 684.447C294.482 733.702 310.681 773.631 330.665 773.631Z" fill="#29DDFF"/>
<path d="M343.208 904.76C363.192 904.76 379.391 864.831 379.391 815.576C379.391 766.321 363.192 726.392 343.208 726.392C323.225 726.392 307.025 766.321 307.025 815.576C307.025 864.831 323.225 904.76 343.208 904.76Z" fill="#29DDFF"/>
<path d="M347.07 1028.17C367.054 1028.17 383.254 988.243 383.254 938.988C383.254 889.733 367.054 849.804 347.07 849.804C327.087 849.804 310.887 889.733 310.887 938.988C310.887 988.243 327.087 1028.17 347.07 1028.17Z" fill="#29DDFF"/>
<path d="M374.402 1061.38C373.707 1043.57 370.893 1027.31 366.575 1014.13C359.944 993.853 349.782 980.877 338.389 980.877C331.212 980.877 324.513 986.033 318.885 994.912C318.361 995.743 317.848 996.585 317.347 997.473L374.402 1061.38Z" fill="#29DDFF"/>
<path d="M493.672 445.146H700.654V522.982C700.654 542.617 684.705 558.553 665.052 558.553H533.352C511.456 558.553 493.683 540.796 493.683 518.918V445.135L493.672 445.146Z" fill="#29DDFF"/>
<path d="M725.023 445.146H862.773V515.435C862.773 534.524 847.256 550.027 828.15 550.027H764.476C742.705 550.027 725.023 532.361 725.023 510.609V445.146Z" fill="#29DDFF"/>
<path d="M499.883 417.34L310.12 371.086L303.259 399.186L493.021 445.44L499.883 417.34Z" fill="#29DDFF"/>
<path d="M862.761 416.462H492.829V445.385H862.761V416.462Z" fill="#29DDFF"/>
<path d="M680.034 445.146V509.117C680.034 528.764 664.084 544.689 644.42 544.689H553.973C532.065 544.689 514.304 526.943 514.304 505.054V445.146H680.034Z" fill="#29DDFF"/>
<path d="M850.628 445.146V499.624C850.628 518.736 835.134 534.216 816.006 534.216H780.153C758.37 534.216 740.7 516.573 740.7 494.798V445.146H850.628Z" fill="#29DDFF"/>
<path d="M776.655 283.26V283.34C776.541 285.377 776.336 287.404 776.029 289.384C770.993 321.279 747.911 341.574 741.281 347.231C687.621 393.081 604.762 374.96 530.914 358.796C442.598 339.48 431.376 314.119 428.619 304.808C427.776 301.973 427.298 299.173 427.093 296.339C426.443 287.791 428.289 278.946 430.545 268.167C432.755 257.638 440.172 224.32 467.218 198.743C492.624 174.725 535.164 157.731 573.375 167.896C621.361 180.656 674.269 239.402 694.969 262.384C700.78 268.838 711.341 280.972 723.918 279.743C745.667 277.592 759.441 240.78 764.442 239.243C768.259 238.071 777.794 261.61 776.655 283.26Z" fill="#29DDFF"/>
<path d="M430.545 105.757C424.917 104.175 403.772 141.988 397.734 186.746C391.377 233.813 410.209 289.908 419.927 289.919C452.738 289.919 434.669 253.016 430.545 233.028C426.956 215.669 426.956 203.137 428.619 171.322C430.898 127.566 434.589 106.895 430.545 105.757Z" fill="#29DDFF"/>
<path d="M685.844 107.738C680.432 105.541 643.235 141.966 632.241 185.778C620.689 231.844 645.115 288.485 654.776 289.566C687.382 293.22 673.54 254.53 671.66 234.212C670.031 216.568 671.421 204.104 676.616 172.676C683.748 129.445 689.729 109.32 685.833 107.738H685.844Z" fill="#29DDFF"/>
<path d="M780.517 614.249C780.517 631.926 749.974 646.246 740.7 646.246C740.7 646.246 700.882 631.915 700.882 614.249C700.882 596.583 718.712 582.252 740.7 582.252C762.688 582.252 780.517 596.583 780.517 614.249Z" fill="#29DDFF"/>
<path d="M738.273 694.976C734.263 695.249 734.707 703.183 727.655 709.238C719.407 716.33 709.142 713.769 708.8 716.341C708.413 719.244 721.139 725.129 735.596 726.085C755.362 727.382 773.089 719.13 772.611 715.783C772.223 713.143 760.819 716.421 750.828 708.589C743.149 702.579 742.283 694.691 738.273 694.964V694.976Z" fill="#29DDFF"/>
<path opacity="0.3" d="M680.034 445.146V509.117C680.034 528.764 664.084 544.689 644.42 544.689H630.475C619.926 533.215 613.477 517.894 613.477 501.07C613.477 477.155 626.499 456.279 645.856 445.146H680.034Z" fill="#29DDFF"/>
<path opacity="0.3" d="M850.628 445.146V499.624C850.628 518.736 835.134 534.216 816.006 534.216H811.768C805.946 524.53 802.596 513.192 802.596 501.07C802.596 477.155 815.618 456.279 834.986 445.146H850.628Z" fill="#29DDFF"/>
<path d="M845.79 432.248L656.028 385.994L649.167 414.093L838.929 460.347L845.79 432.248Z" fill="#C13187"/>
<path d="M811.152 728.077C803.519 753.187 792.058 790.887 764.192 801.348C761.241 802.452 757.048 803.658 752.64 805.366C744.699 808.428 736.04 813.14 732.657 821.916C730.788 826.777 731.221 831.114 731.381 832.844C732.828 848.632 733.044 864.477 732.964 880.333C732.873 895.745 732.497 911.169 732.68 926.57C732.759 933.263 732.942 939.945 733.306 946.626C735.437 985.977 734.582 995.39 735.516 1013.33C735.824 1019.12 736.325 1025.82 737.168 1034.68C737.647 1039.69 738.114 1044.09 738.547 1047.96C741.509 1073.89 743.48 1076.42 741.668 1082.25C737.316 1096.24 717.561 1108.81 688.487 1118.15C606.71 1144.46 451.188 1145.38 357.415 1081.4C340.36 1069.77 325.356 1055.99 313.2 1039.83C307.344 1032.04 303.197 1024.77 300.36 1017.5C295.974 1006.27 294.732 995.083 295.12 982.038V981.993C295.712 962.312 300.041 938.431 302.981 903.941C303.129 902.245 303.266 900.526 303.402 898.773C305.612 870.657 306.809 835.69 304.439 790.716C304.052 783.204 303.55 775.418 302.947 767.325C302.092 755.919 301.021 743.91 299.688 731.287C297.387 709.42 294.869 688.408 292.465 667.941C291.315 658.175 290.198 648.522 289.127 638.961C286.45 614.966 284.149 591.529 282.77 568.08C281.608 548.422 281.095 528.764 281.54 508.776C282.007 488.002 283.522 466.876 286.45 445.032C288.113 432.489 290.255 419.706 292.932 406.604C296.84 387.333 301.921 367.402 308.369 346.571C311.058 337.898 305.191 326.822 305.168 320.698C305.168 319.913 305.259 319.218 305.476 318.615C290.175 272.799 290.039 272.333 290.039 272.333C281.164 241.531 280.435 190.843 309.338 150.844C312.516 146.439 334.687 116.65 374.96 104.562C385.76 101.329 424.495 95.5695 428.995 104.562C431.809 110.174 411.462 142.808 407.771 195.203C406.358 215.237 404.82 236.932 417.42 251.127C444.991 282.179 531.803 267.723 558.952 222.84C577.032 192.949 554.179 173.507 575.039 139.917C595.386 107.157 638.063 97.4021 654.822 94.6247C663.549 93.1677 693.637 90.7545 691.483 94.3743C679.259 114.943 653.922 168.431 648.385 242.76C644.933 289.134 659.948 351.329 695.995 387.39C701.999 393.411 706.738 396.838 712.07 405.386C725.16 426.365 722.073 446.432 720.444 506.306C719.726 532.543 719.396 545.747 721.082 550.016C734.502 584.062 774.092 575.49 800.853 607.875C835.1 649.285 814.582 716.808 811.152 728.077Z" fill="#5D417A"/>
<path d="M719.851 932.341C739.835 932.341 756.034 892.412 756.034 843.157C756.034 793.902 739.835 753.973 719.851 753.973C699.868 753.973 683.668 793.902 683.668 843.157C683.668 892.412 699.868 932.341 719.851 932.341Z" fill="#5D417A"/>
<path d="M759.908 966.569C759.908 992.488 755.419 1015.82 748.265 1032.12C745.416 1038.61 742.135 1043.98 738.547 1047.96C734.024 1052.98 729 1055.76 723.713 1055.76C714.246 1055.76 705.622 1046.79 699.174 1032.12C692.019 1015.82 687.53 992.488 687.53 966.569C687.53 944.999 690.64 925.215 695.801 909.792C702.443 889.997 712.48 877.385 723.713 877.385C726.915 877.385 730.014 878.409 732.964 880.333C738.547 883.941 743.594 890.76 747.775 899.934C755.214 916.268 759.908 940.07 759.908 966.569Z" fill="#5D417A"/>
<path d="M738.547 1047.96C741.509 1073.89 743.48 1076.42 741.668 1082.25C737.316 1096.24 717.561 1108.81 688.487 1118.15C687.861 1111.57 687.53 1104.71 687.53 1097.65C687.53 1071.75 692.007 1048.41 699.174 1032.12C705.622 1017.44 714.246 1008.47 723.713 1008.47C727.849 1008.47 731.825 1010.18 735.516 1013.33C740.301 1017.38 744.63 1023.85 748.265 1032.12C745.416 1038.61 742.135 1043.98 738.547 1047.96Z" fill="#5D417A"/>
<path d="M512.869 945.841C532.852 945.841 549.052 905.912 549.052 856.657C549.052 807.402 532.852 767.473 512.869 767.473C492.885 767.473 476.685 807.402 476.685 856.657C476.685 905.912 492.885 945.841 512.869 945.841Z" fill="#3D3056"/>
<path d="M516.731 1069.25C536.714 1069.25 552.914 1029.32 552.914 980.069C552.914 930.814 536.714 890.885 516.731 890.885C496.747 890.885 480.547 930.814 480.547 980.069C480.547 1029.32 496.747 1069.25 516.731 1069.25Z" fill="#3D3056"/>
<path d="M577.99 931.456C596.212 923.259 594.576 880.205 574.336 835.293C554.096 790.38 522.917 760.617 504.695 768.814C486.474 777.011 488.11 820.065 508.35 864.978C528.589 909.89 559.769 939.654 577.99 931.456Z" fill="#3D3056"/>
<path d="M610.112 923.34C659.1 917.824 696.998 897.269 694.76 877.428C692.522 857.588 650.996 845.976 602.008 851.492C553.02 857.008 515.122 877.563 517.36 897.404C519.597 917.244 561.124 928.856 610.112 923.34Z" fill="#3D3056"/>
<path d="M678.519 1036.01C698.492 1035.35 713.35 994.902 711.707 945.674C710.064 896.447 692.542 857.079 672.569 857.744C652.597 858.41 637.738 898.856 639.381 948.084C641.024 997.312 658.547 1036.68 678.519 1036.01Z" fill="#3D3056"/>
<path d="M598.155 1033.99C641.628 1032.54 675.643 994.626 674.13 949.3C672.617 903.975 636.149 868.405 592.677 869.853C549.204 871.302 515.189 909.22 516.702 954.546C518.215 999.872 554.683 1035.44 598.155 1033.99Z" fill="#3D3056"/>
<path d="M599.609 1077.7C655.262 1071.44 698.338 1048.27 695.821 1025.96C693.305 1003.66 646.15 990.651 590.497 996.917C534.844 1003.18 491.768 1026.35 494.284 1048.66C496.8 1070.96 543.956 1083.97 599.609 1077.7Z" fill="#3D3056"/>
<path d="M674.497 830.92C758.137 830.92 825.94 766.106 825.94 686.154C825.94 606.202 758.137 541.388 674.497 541.388C590.857 541.388 523.054 606.202 523.054 686.154C523.054 766.106 590.857 830.92 674.497 830.92Z" fill="#844CCC"/>
<path d="M523.042 686.154C507.036 635.717 583.276 540.819 674.486 541.388C776.393 542.025 826.191 625.222 825.929 686.154C825.929 687.804 826.533 691.675 825.542 696.444C820.255 722.067 781.418 744.422 755.59 735.817C751.626 734.497 739.937 733.108 733.807 728.623C724.978 722.18 725.514 714.167 721.378 714.895C719.76 715.18 718.484 720.997 710.635 729.272C710.635 729.272 704.186 734.929 691.78 736.375C679.487 737.809 541.396 744.035 523.02 686.154H523.042Z" fill="#8C63DA"/>
<path d="M759.042 316.691C754.007 348.586 730.925 368.882 724.294 374.539C670.635 420.389 587.776 402.267 513.928 386.104C425.612 366.787 414.39 341.426 411.633 332.115C410.095 326.902 409.742 321.768 410.106 316.361C410.311 319.196 410.79 321.996 411.633 324.83C414.39 334.141 425.612 359.502 513.928 378.819C587.776 394.982 670.635 413.104 724.294 367.254C730.925 361.597 754.007 341.301 759.042 309.407C759.35 307.426 759.555 305.4 759.669 303.362C759.885 307.836 759.726 312.355 759.042 316.691Z" fill="#302542"/>
<path d="M318.498 492.817C338.481 492.817 354.681 452.888 354.681 403.633C354.681 354.378 338.481 314.449 318.498 314.449C298.514 314.449 282.314 354.378 282.314 403.633C282.314 452.888 298.514 492.817 318.498 492.817Z" fill="#5D417A"/>
<path d="M302.183 582.013C322.167 582.013 338.366 542.084 338.366 492.829C338.366 443.574 322.167 403.645 302.183 403.645C282.2 403.645 266 443.574 266 492.829C266 542.084 282.2 582.013 302.183 582.013Z" fill="#5D417A"/>
<path d="M302.183 671.197C322.167 671.197 338.366 631.268 338.366 582.013C338.366 532.758 322.167 492.829 302.183 492.829C282.2 492.829 266 532.758 266 582.013C266 631.268 282.2 671.197 302.183 671.197Z" fill="#5D417A"/>
<path d="M313.679 793.642C333.662 793.642 349.862 753.713 349.862 704.458C349.862 655.202 333.662 615.273 313.679 615.273C293.695 615.273 277.495 655.202 277.495 704.458C277.495 753.713 293.695 793.642 313.679 793.642Z" fill="#5D417A"/>
<path d="M326.222 924.771C346.205 924.771 362.405 884.842 362.405 835.587C362.405 786.332 346.205 746.403 326.222 746.403C306.238 746.403 290.039 786.332 290.039 835.587C290.039 884.842 306.238 924.771 326.222 924.771Z" fill="#5D417A"/>
<path d="M330.084 1048.19C350.067 1048.19 366.267 1008.27 366.267 959.011C366.267 909.756 350.067 869.827 330.084 869.827C310.1 869.827 293.901 909.756 293.901 959.011C293.901 1008.27 310.1 1048.19 330.084 1048.19Z" fill="#5D417A"/>
<path d="M357.415 1081.4C356.72 1063.6 353.906 1047.33 349.588 1034.15C342.958 1013.88 332.795 1000.9 321.403 1000.9C314.225 1000.9 307.526 1006.06 301.898 1014.93C301.374 1015.77 300.862 1016.61 300.36 1017.5L357.415 1081.4Z" fill="#5D417A"/>
<path d="M476.685 465.168H683.668V543.004C683.668 562.639 667.718 578.575 648.066 578.575H516.366C494.469 578.575 476.697 560.818 476.697 538.94V465.157L476.685 465.168Z" fill="#C13187"/>
<path d="M708.026 465.169H845.775V535.457C845.775 554.546 830.258 570.049 811.152 570.049H747.479C725.707 570.049 708.026 552.383 708.026 530.631V465.169Z" fill="#C13187"/>
<path d="M482.892 437.357L293.129 391.103L286.268 419.202L476.03 465.456L482.892 437.357Z" fill="#C13187"/>
<path d="M845.775 436.473H475.842V465.396H845.775V436.473Z" fill="#C13187"/>
<path d="M663.047 465.169V529.14C663.047 548.786 647.098 564.711 627.434 564.711H536.987C515.079 564.711 497.318 546.965 497.318 525.076V465.169H663.047Z" fill="url(#paint1_linear_1505_165)"/>
<path d="M833.642 465.169V519.647C833.642 538.758 818.148 554.239 799.019 554.239H763.166C741.383 554.239 723.713 536.595 723.713 514.82V465.169H833.642Z" fill="url(#paint2_linear_1505_165)"/>
<path d="M759.669 303.283V303.362C759.555 305.4 759.35 307.426 759.042 309.406C754.007 341.301 730.925 361.597 724.294 367.254C670.635 413.104 587.776 394.982 513.928 378.819C425.612 359.502 414.39 334.141 411.633 324.83C410.79 321.996 410.311 319.196 410.106 316.361C409.457 307.813 411.303 298.968 413.558 288.189C415.769 277.66 423.185 244.342 450.232 218.765C475.637 194.748 518.178 177.753 556.389 187.918C604.375 200.678 657.283 259.425 677.983 282.406C683.793 288.861 694.354 300.995 706.932 299.765C728.681 297.614 742.454 260.802 747.456 259.265C751.272 258.093 760.808 281.632 759.669 303.283Z" fill="#3D3056"/>
<path d="M413.558 125.768C407.93 124.186 386.786 161.999 380.747 206.757C374.39 253.824 393.222 309.919 402.94 309.93C435.751 309.93 417.683 273.027 413.558 253.039C409.97 235.68 409.97 223.148 411.633 191.333C413.912 147.577 417.603 126.906 413.558 125.768Z" fill="#3D3056"/>
<path d="M668.846 127.76C663.435 125.563 626.237 161.988 615.243 205.8C603.691 251.866 628.117 308.507 637.778 309.589C670.384 313.242 656.542 274.552 654.662 254.234C653.033 236.591 654.423 224.127 659.618 192.699C666.75 149.467 672.731 129.342 668.835 127.76H668.846Z" fill="#3D3056"/>
<path d="M763.531 634.271C763.531 651.949 732.987 666.268 723.713 666.268C723.713 666.268 683.896 651.937 683.896 634.271C683.896 616.605 701.725 602.274 723.713 602.274C745.701 602.274 763.531 616.605 763.531 634.271Z" fill="#3D3056"/>
<path d="M721.275 714.998C717.265 715.271 717.709 723.205 710.657 729.261C702.409 736.352 692.144 733.791 691.802 736.363C691.415 739.266 704.141 745.151 718.598 746.107C738.364 747.405 756.091 739.152 755.613 735.806C755.226 733.165 743.822 736.443 733.83 728.612C726.151 722.602 725.286 714.713 721.275 714.987V714.998Z" fill="#3D3056"/>
<path opacity="0.3" d="M663.047 465.169V529.14C663.047 548.786 647.097 564.711 627.434 564.711H613.489C602.939 553.237 596.491 537.916 596.491 521.092C596.491 497.177 609.513 476.301 628.869 465.169H663.047Z" fill="white"/>
<path opacity="0.3" d="M833.642 465.169V519.647C833.642 538.758 818.148 554.239 799.019 554.239H794.781C788.959 544.552 785.61 533.215 785.61 521.092C785.61 497.177 798.632 476.301 817.999 465.169H833.642Z" fill="white"/>
</g>
</g>
<defs>
<linearGradient id="paint0_linear_1505_165" x1="567" y1="38.5" x2="567" y2="1849.5" gradientUnits="userSpaceOnUse">
<stop stop-color="#B63087"/>
<stop offset="1" stop-color="#F99223"/>
</linearGradient>
<linearGradient id="paint1_linear_1505_165" x1="580.177" y1="564.711" x2="580.177" y2="465.169" gradientUnits="userSpaceOnUse">
<stop stop-color="#F99219"/>
<stop offset="1" stop-color="#FF4CFF"/>
</linearGradient>
<linearGradient id="paint2_linear_1505_165" x1="778.672" y1="554.239" x2="778.672" y2="465.169" gradientUnits="userSpaceOnUse">
<stop stop-color="#F99219"/>
<stop offset="1" stop-color="#FF4CFF"/>
</linearGradient>
<clipPath id="clip0_1505_165">
<rect width="1135" height="1135" fill="white"/>
</clipPath>
<clipPath id="clip1_1505_165">
<rect width="619" height="1101" fill="white" transform="translate(266 34)"/>
</clipPath>
</defs>
</svg>
